<?xml version="1.0" encoding="utf-8"?>
<!-- Generator: Adobe Illustrator 20.1.0, SVG Export Plug-In . SVG Version: 6.00 Build 0)  -->
<svg version="1.1" id="Layer_1" xmlns="http://www.w3.org/2000/svg" xmlns:xlink="http://www.w3.org/1999/xlink" x="0px" y="0px"
	 viewBox="0 0 85.8 33.4" style="enable-background:new 0 0 85.8 33.4;" xml:space="preserve">
<style type="text/css">
	.st0{fill:#E08222;}
	.st1{fill:none;stroke:#873E0E;stroke-linecap:round;stroke-linejoin:round;stroke-miterlimit:10;}
	.st2{fill:none;stroke:#000000;stroke-width:0.75;stroke-miterlimit:10;}
	.st3{fill:none;stroke:#000000;stroke-miterlimit:10;}
	.st4{font-family:'MyriadPro-Regular';}
	.st5{font-size:9px;}
</style>
<polygon class="st0" points="18.3,17.9 16.3,17.6 11.6,17 7.4,16.4 4.9,16.1 4.7,16.1 5.2,11.8 5.7,11.8 6.2,7.6 6.1,7.5 6.7,3.1 
	6.6,3.1 6.7,2.7 9.3,3 9.3,3.1 10.4,3.3 10.5,3.4 16.4,4.1 19.9,4.6 19.8,5.6 19.9,5.8 19.5,9.2 19.4,9.2 19,13.5 18.9,13.5 
	18.5,16.3 "/>
<polygon class="st1" points="18.4,17.8 16.4,17.6 11.7,16.9 7.5,16.3 5,16 4.8,16 5.3,11.7 5.8,11.7 6.3,7.5 6.2,7.4 6.8,3.1 
	6.7,3.1 6.9,2.6 9.4,2.9 9.4,3.1 10.6,3.3 10.6,3.4 16.5,4 20,4.5 19.9,5.6 20.1,5.7 19.6,9.1 19.5,9.1 19.1,13.4 19,13.5 
	18.6,16.3 "/>
<line class="st2" x1="12" y1="10.9" x2="32.7" y2="10.9"/>
<line class="st2" x1="35.7" y1="26" x2="15" y2="26"/>
<line class="st3" x1="15" y1="26" x2="15" y2="17.3"/>
<text transform="matrix(1 0 0 1 35.2717 13.63)" class="st4 st5">Median year</text>
<text transform="matrix(1 0 0 1 38.2721 28.8434)" class="st4 st5">Driest year</text>
</svg>
